<svg width="21" height="21" viewBox="0 0 21 21" fill="none" xmlns="http://www.w3.org/2000/svg">
<circle cx="10.5" cy="10.5" r="10.5" fill="#13A360"/>
<path d="M4.46231 10.205C4.25164 10.416 4.1333 10.7019 4.1333 11C4.1333 11.2982 4.25164 11.5841 4.46231 11.795L8.70431 16.0393C8.91536 16.2503 9.2016 16.3689 9.50006 16.3689C9.79852 16.3689 10.0848 16.2503 10.2958 16.0393C10.5069 15.8282 10.6254 15.542 10.6254 15.2435C10.6254 14.9451 10.5069 14.6588 10.2958 14.4478L7.97381 12.125L16.6251 12.125C16.9234 12.125 17.2096 12.0065 17.4206 11.7955C17.6315 11.5846 17.7501 11.2984 17.7501 11C17.7501 10.7017 17.6315 10.4155 17.4206 10.2045C17.2096 9.99356 16.9234 9.87504 16.6251 9.87504L7.97381 9.87504L10.2958 7.55304C10.4003 7.44854 10.4832 7.32448 10.5398 7.18794C10.5963 7.05141 10.6254 6.90507 10.6254 6.75729C10.6254 6.6095 10.5963 6.46316 10.5398 6.32663C10.4832 6.19009 10.4003 6.06604 10.2958 5.96154C10.1913 5.85704 10.0673 5.77414 9.93072 5.71759C9.79418 5.66103 9.64785 5.63193 9.50006 5.63193C9.35228 5.63193 9.20594 5.66103 9.0694 5.71759C8.93287 5.77414 8.80881 5.85704 8.70431 5.96154L4.46231 10.205Z" fill="white"/>
</svg>
